<?xml version="1.0" encoding="utf-8"?>
<!-- Generator: Adobe Illustrator 24.0.1, SVG Export Plug-In . SVG Version: 6.00 Build 0)  -->
<svg version="1.1" id="Layer_1" xmlns="http://www.w3.org/2000/svg" xmlns:xlink="http://www.w3.org/1999/xlink" x="0px" y="0px"
	 viewBox="0 0 1500 1500" style="enable-background:new 0 0 1500 1500;" xml:space="preserve">
<style type="text/css">
	.st0{fill:#FFFFFF;}
</style>
<g>
	<path class="st0" d="M1497.49,1.01v261.68h-584.8c-15.08-18.85-70-106.08-164.76-261.68H1497.49z"/>
	<path class="st0" d="M747.93,673.58c94.76-155.6,149.68-242.82,164.76-261.68h584.8v261.68H747.93z"/>
	<path class="st0" d="M1497.49,824.27v261.68h-584.8c-15.08-18.86-70-106.08-164.76-261.68H1497.49z"/>
	<path class="st0" d="M749.2,1235.9c-94.76,155.6-149.68,242.82-164.76,261.68H-0.36l0-261.68H749.2z"/>
	<path class="st0" d="M-0.36,1085.21V823.53h583.8c15.08,18.85,70,106.08,164.76,261.68H-0.36z"/>
	<path class="st0" d="M748.93,1496.84c94.76-155.6,149.68-242.83,164.76-261.68h583.8v261.68H748.93z"/>
	<path class="st0" d="M748.2,412.64c-94.76,155.6-149.68,242.82-164.76,261.68H-0.36V412.64H748.2z"/>
	<path class="st0" d="M-0.36,261.95V0.27h583.8c15.08,18.86,70,106.08,164.76,261.68H-0.36z"/>
</g>
</svg>
